<svg xmlns="http://www.w3.org/2000/svg" viewBox="0 0 241.2 47.78"><defs><style>.cls-1{fill:#21426b;}</style></defs><g id="Layer_2" data-name="Layer 2"><g id="Layer_1-2" data-name="Layer 1"><path class="cls-1" d="M241.2,46.76c-3.42,0-6.32,0-9.22,0-1,0-1.35-.73-1.79-1.42A116.79,116.79,0,0,0,222.28,34c0,3.52-.08,7,0,10.55.06,1.72-.51,2.37-2.21,2.18-2.39-.26-5.44,1-7-.57-1.37-1.38-.38-4.35-.39-6.61,0-11.88,0-23.76-.06-35.64,0-1.83.46-2.65,2.38-2.69a28.11,28.11,0,0,0,5.08-.63c1.77-.35,2.24.27,2.23,2-.07,8.38,0,16.77,0,25.15,0,.55.06,1.11.11,2.08,1.48-1.28,2-2.84,2.95-4.09.63-.84,1.14-1.77,1.71-2.67,4.54-7.11,5.05-7.34,14-6.05-2.06,3.24-3.78,6.59-6.11,9.43-3,3.68-3.27,6.77-.06,10.53C237.29,39.8,239,43.2,241.2,46.76Z"/><path class="cls-1" d="M6.31,35.32c0-2.93-.09-5.87,0-8.79.06-1.63-.5-2.06-2.07-2.05C0,24.49,0,24.42,0,20.06s-.35-3.65,3.65-3.59c1.79,0,2.59-.43,2.36-2.3a15.35,15.35,0,0,1,0-2.44C6.43,3.16,14.15-2,22.28.77c.59.2,1,.43,1,1.14,0,1.79,0,3.58,0,5.37,0,.91-.59,1-1.31,1a10.23,10.23,0,0,0-3.6.55c-2.3.85-3.82,4.95-2.61,7,.36.61,1,.51,1.51.52,1.39,0,2.78.09,4.16,0,1.63-.13,2,.59,1.72,2-.32,1.84.06,4.09-.89,5.45-1.08,1.56-3.47.48-5.28.57-1.47.07-1.49.83-1.48,1.9,0,5.78-.13,11.57.07,17.35.08,2.46-.73,3.14-3,2.88a27.65,27.65,0,0,0-4.64,0c-1.31.07-1.69-.49-1.66-1.73C6.35,41.68,6.32,38.5,6.31,35.32Z"/><path class="cls-1" d="M72.71,16a21.7,21.7,0,0,1,6.69,1.22c1.21.45,1.78,1.09,1.2,2.38-.06.15-.1.31-.15.46-1.31,4.23-1.31,4.23-5.71,3.58q-6.21-.91-8,3c-1.7,3.66-.79,9.84,1.84,11.89,2.43,1.89,5.22,1.81,7.91.84,2-.71,2.81-.43,3.36,1.73,1.23,4.82,1.35,4.8-3.6,5.89a20,20,0,0,1-11.31-.74,11.66,11.66,0,0,1-7.73-8.47A24.11,24.11,0,0,1,56.31,32C56.2,21.5,61.71,15.94,72.71,16Z"/><path class="cls-1" d="M143.1,24.8C141.47,19,137.39,16,131.42,16c-3,0-5.51,1.18-8,3.63-.08-1-.13-1.36-.13-1.74,0-5.14,0-10.27,0-15.4,0-1.6-.39-2.22-2.09-1.87a35.3,35.3,0,0,1-5.33.67c-1.63.07-2.21.65-2.2,2.35.06,13.68,0,27.36,0,41.05a3.81,3.81,0,0,0,.21,1.66c.34.68,9,.63,9.14,0,.46-3.05,1.76-1,2.62-.43a11.8,11.8,0,0,0,16.91-5.69A23.92,23.92,0,0,0,143.1,24.8Zm-9,10.59c-.43,2.77-2.06,4.34-4.6,4.54A5.17,5.17,0,0,1,123.78,36a18.16,18.16,0,0,1,.12-9.4c.58-2.15,2.57-3.23,5.2-3.13,2.35.08,4.09,1,4.77,3.41a20.08,20.08,0,0,1,.56,4.84C134.33,33,134.3,34.19,134.11,35.39Z"/><path class="cls-1" d="M53.44,21.86c0-5.4,0-5.38-5.31-5.4-2.16,0-4.62-.5-3.41,3.78-1-.79-1.24-1-1.48-1.19-6.5-5.72-15.89-3.25-18.7,5a23.64,23.64,0,0,0-.07,15.12C26.57,45.8,33,49,39.66,46.83c1.82-.58,3-2,5.05-3.56-1,3.62.83,3.65,2.91,3.51a21.3,21.3,0,0,1,3.66,0c1.75.18,2.21-.55,2.19-2.21C53.4,37,53.44,29.43,53.44,21.86ZM43.7,35.19A4.84,4.84,0,0,1,39,39.94c-2.94.2-5.2-1.34-5.74-4.17A20.57,20.57,0,0,1,33.53,27c.61-2.5,2.55-3.67,5.41-3.51a4.54,4.54,0,0,1,4.67,4.11c.2,1.36.2,2.75.28,3.91C43.82,32.92,43.82,34.06,43.7,35.19Z"/><path class="cls-1" d="M176.4,27.05c-1.07-5.58-4.38-9.14-9.92-10.5-11.86-2.89-19.75,3.28-19.82,15.45,0,.57,0,1.14,0,1.71.18,6.42,3.62,11.17,9.32,12.87,7.32,2.19,14.55.31,18.13-4.74a12.36,12.36,0,0,0,1.1-1.9A20.53,20.53,0,0,0,176.4,27.05Zm-9.33,8.18c-.5,3.1-2.55,4.81-5.51,4.72a5,5,0,0,1-5.26-5.21,53.3,53.3,0,0,1,0-6.32,4.87,4.87,0,0,1,4.78-4.89c3.13-.24,5.28,1.23,5.9,4.19a26.44,26.44,0,0,1,.35,3.69C167.24,33,167.25,34.12,167.07,35.23Z"/><path class="cls-1" d="M204.92,19.4C199.84,15.34,194,15.08,188,17.05c-5.53,1.83-7.92,6.11-8.46,11.69a32.57,32.57,0,0,0-.13,5.84c.44,5.05,2.66,9,7.37,11.26,11.49,5.6,22.81-1.39,22.82-14.85C209.48,27.09,208.82,22.51,204.92,19.4Zm-5.17,16.2a5.09,5.09,0,0,1-5.82,4.33c-2.88-.25-4.66-2.07-4.91-5.1-.08-1,0-2.1,0-3.16h-.14c.06-1.13,0-2.28.18-3.4A5,5,0,0,1,194,23.51c3.09-.17,5.27,1.36,5.82,4.34A21,21,0,0,1,199.75,35.6Z"/><path class="cls-1" d="M93.49,16.28a13.78,13.78,0,0,0-2.64.47c-4.28,1.31-7.32,4-8.31,8.43A30.1,30.1,0,0,0,82.5,38,10.22,10.22,0,0,0,90,46.26a28.62,28.62,0,0,0,14.73.5c5-1.2,5.08-1.35,3.74-6.19-.38-1.36-.85-1.88-2.35-1.35a23.16,23.16,0,0,1-9.64,1.11A4.92,4.92,0,0,1,91.78,37c-.45-1.25-.28-2,1.34-2,2.61.07,5.21,0,7.82,0h7.82c.89,0,1.46-.13,1.61-1.28C112,21.46,105.82,15,93.49,16.28ZM99.8,28.67a27.57,27.57,0,0,0-3.15,0,27.73,27.73,0,0,0-3.16,0c-2.32.27-2.37-.93-1.84-2.61a5.09,5.09,0,0,1,5.72-3.47,4.41,4.41,0,0,1,4.27,3.93C101.85,28,101.58,28.87,99.8,28.67Z"/></g></g></svg>