<svg xmlns="http://www.w3.org/2000/svg" viewBox="0 0 26.65 31.43"><defs><style>.cls-1{fill:#fff;}</style></defs><g id="Layer_2" data-name="Layer 2"><g id="Layer_1-2" data-name="Layer 1"><path class="cls-1" d="M26.65,7.19C26.3,12.8,25.34,18.13,22.53,23a22.22,22.22,0,0,1-8.62,8.37,1.59,1.59,0,0,1-1.31-.1C6.43,27.78,2.81,22.4,1.25,15.62.61,12.87.39,10,0,7.22A1.22,1.22,0,0,1,1.23,5.74,12.82,12.82,0,0,0,5.7,3.92C7.81,2.72,9.94,1.55,12.05.36A2.45,2.45,0,0,1,14.7.43c2,1.18,4,2.34,6,3.5a10.87,10.87,0,0,0,5,1.83C26.3,5.79,26.67,6.44,26.65,7.19ZM11.92,16.85c-.57-.59-1.09-1.14-1.63-1.67-1.46-1.47-1.45-1.46-2.93,0-.39.39-.42.65,0,1,1.31,1.27,2.61,2.55,3.87,3.87.48.51.78.44,1.23,0,2.22-2.26,4.48-4.49,6.72-6.73.17-.18.32-.37.52-.6-.41-.39-.78-.73-1.14-1.09-.74-.75-.74-.76-1.47,0Z"/></g></g></svg>