<svg xmlns="http://www.w3.org/2000/svg" viewBox="0 0 88.67 14.71"><defs><style>.cls-1{fill:#efc652;}</style></defs><g id="Layer_2" data-name="Layer 2"><g id="Layer_1-2" data-name="Layer 1"><polygon class="cls-1" points="7.74 0 10.13 4.84 15.47 5.62 11.6 9.39 12.52 14.71 7.74 12.2 2.96 14.71 3.87 9.39 0 5.62 5.34 4.84 7.74 0"/><polygon class="cls-1" points="26.04 0 28.43 4.84 33.77 5.62 29.9 9.39 30.82 14.71 26.04 12.2 21.25 14.71 22.17 9.39 18.3 5.62 23.65 4.84 26.04 0"/><polygon class="cls-1" points="44.34 0 46.73 4.84 52.07 5.62 48.2 9.39 49.12 14.71 44.34 12.2 39.56 14.71 40.47 9.39 36.6 5.62 41.95 4.84 44.34 0"/><polygon class="cls-1" points="62.64 0 65.03 4.84 70.37 5.62 66.5 9.39 67.42 14.71 62.64 12.2 57.86 14.71 58.77 9.39 54.9 5.62 60.25 4.84 62.64 0"/><polygon class="cls-1" points="80.94 0 83.33 4.84 88.67 5.62 84.81 9.39 85.72 14.71 80.94 12.2 76.16 14.71 77.07 9.39 73.2 5.62 78.55 4.84 80.94 0"/></g></g></svg>