<svg xmlns="http://www.w3.org/2000/svg" viewBox="0 0 26.65 26.65"><defs><style>.cls-1{fill:#fff;}</style></defs><g id="Layer_2" data-name="Layer 2"><g id="Layer_1-2" data-name="Layer 1"><path class="cls-1" d="M26.65,12.73c0-.2,0-.4,0-.6s0-.6-.06-.9A13.51,13.51,0,0,0,24.48,5.9,13.14,13.14,0,0,0,22.2,3.3a13,13,0,0,0-2.82-1.93A12.19,12.19,0,0,0,17.19.5,9.93,9.93,0,0,0,14.43,0,2.57,2.57,0,0,1,14,0H12.7s0,0-.08,0a10.81,10.81,0,0,0-1.27.07A12.74,12.74,0,0,0,7.54,1.24,12.93,12.93,0,0,0,4.28,3.45,13.46,13.46,0,0,0,.47,9.55,10.24,10.24,0,0,0,0,12.24a2.86,2.86,0,0,1,0,.51v.9A1.51,1.51,0,0,1,0,14c0,.13,0,.26,0,.39a8.56,8.56,0,0,0,.23,1.82,13.41,13.41,0,0,0,1.94,4.55,13.89,13.89,0,0,0,2.45,2.74,12.72,12.72,0,0,0,3.59,2.19,11.07,11.07,0,0,0,4,.92,2.07,2.07,0,0,1,.5,0h1.11a1.71,1.71,0,0,1,.32,0,3.77,3.77,0,0,0,.47,0,6,6,0,0,0,.73-.05,13.31,13.31,0,0,0,7-3.34,13.43,13.43,0,0,0,2.12-2.45,13.73,13.73,0,0,0,1.45-2.86,11,11,0,0,0,.73-3.85,1.93,1.93,0,0,1,0-.34Zm-4.73-6a30.65,30.65,0,0,0-5.13,4.79,45,45,0,0,0-6.33,9.69c-.24.49-.47,1-.7,1.49,0,.11-.08.11-.16,0Q6.26,19.35,2.92,16c-.09-.09-.07-.13,0-.2l2.59-2.13c.09-.08.13-.06.2,0,1,1.24,2.05,2.47,3.07,3.7.11.13.11.13.21,0a59.55,59.55,0,0,1,7.42-7.56,26.39,26.39,0,0,1,4.51-3.11,11.39,11.39,0,0,1,2.37-1l.14,0C22.92,6,22.41,6.36,21.92,6.72Z"/></g></g></svg>