<svg xmlns="http://www.w3.org/2000/svg" viewBox="0 0 225.34 104.73"><defs><style>.cls-1{fill:#21a46e;}.cls-2{fill:#24ac7a;}.cls-3{fill:#181818;}.cls-4{fill:#191919;}.cls-5{fill:#0a532c;}.cls-6{fill:#fefefe;}</style></defs><g id="Layer_2" data-name="Layer 2"><g id="Layer_1-2" data-name="Layer 1"><path class="cls-1" d="M225.3,84c0,6.44,0,12.87,0,19.31,0,1.2-.34,1.44-1.48,1.43q-19.4-.06-38.8,0c-1.06,0-1.43-.22-1.43-1.37q.06-19.51,0-39c0-1.16.39-1.37,1.44-1.36q19.47,0,38.94,0c1,0,1.34.23,1.33,1.31C225.27,70.83,225.3,77.41,225.3,84Z"/><path class="cls-1" d="M93.59,83.84c0-6.48,0-13,0-19.44,0-1,.14-1.46,1.34-1.45q19.61.07,39.21,0c1,0,1.29.21,1.28,1.23q0,19.65,0,39.3c0,1-.31,1.23-1.27,1.23q-19.6,0-39.21,0c-1.19,0-1.36-.42-1.35-1.45C93.61,96.8,93.59,90.32,93.59,83.84Z"/><path class="cls-1" d="M180.38,83.84c0,6.48,0,13,0,19.43,0,1-.12,1.46-1.34,1.46q-19.53-.08-39.05,0c-1,0-1.33-.25-1.33-1.31q.06-19.57,0-39.14c0-1.08.3-1.32,1.34-1.31q19.51,0,39,0c1,0,1.35.25,1.34,1.32C180.36,70.8,180.38,77.32,180.38,83.84Z"/><path class="cls-1" d="M48.67,83.8c0-6.53,0-13,0-19.58,0-1,.2-1.27,1.22-1.27q19.62.06,39.22,0c1,0,1.25.29,1.25,1.26q0,19.59,0,39.17c0,1-.25,1.33-1.32,1.33q-19.55-.06-39.08,0c-1.09,0-1.3-.32-1.29-1.33C48.69,96.86,48.67,90.33,48.67,83.8Z"/><path class="cls-1" d="M45.32,84c0,6.44,0,12.87,0,19.31,0,1-.15,1.44-1.34,1.44q-19.47-.08-38.94,0c-1,0-1.34-.21-1.34-1.3q.06-19.59,0-39.17c0-1.1.34-1.3,1.35-1.29Q24.54,63,44,63c1,0,1.35.22,1.34,1.3C45.3,70.83,45.32,77.41,45.32,84Z"/><path class="cls-2" d="M38.5,35.93q2.52,7.65,5,15.3l-.24.19c-1.67-1.2-3.35-2.39-5-3.6-3.53-2.55-7.07-5.1-10.58-7.68a1.22,1.22,0,0,0-1.78,0c-4.82,3.58-9.69,7.07-14.55,10.58-.37.27-.76.5-1.42.94L14.08,39c.66-2,1.25-4,2-6a1.26,1.26,0,0,0-.59-1.73Q8.26,26.05,1.1,20.84C.74,20.58.4,20.29,0,20a2.47,2.47,0,0,1,1.47-.2c5.6,0,11.19,0,16.79,0,2.41,0,1.91.46,2.74-2C22.82,12.17,24.6,6.59,26.41,1c.08-.27.21-.51.43-1,.63,1.92,1.19,3.62,1.74,5.32,1.45,4.46,2.91,8.9,4.31,13.37.28.89.77,1.1,1.64,1.09,5.79,0,11.57,0,17.35,0h1.49l.14.36L37.4,31.73c-2.17.94-3.82,2.66-5.77,3.94-1.27.83-2.43,1.82-3.58,2.62,3.1-.84,6.28-1.77,9.52-2.49A1,1,0,0,1,38.5,35.93Z"/><path class="cls-3" d="M131.44,33.35a2.3,2.3,0,0,1-2.7-1.41c-.84-1.69-5.15-1.8-6.52-.43-.89.89-.59,2.15.74,2.85a17.15,17.15,0,0,0,4.57,1.27,27.93,27.93,0,0,1,3.37.91c2.1.72,3.65,2,4,4.28a5.73,5.73,0,0,1-2.44,5.88c-3.36,2.45-9.78,2.53-13.16.12a6,6,0,0,1-2.64-4.58c0-.67.07-1.08.89-1a8,8,0,0,0,1.55,0c1.24-.09,2.15-.08,2.66,1.53.59,1.88,2.58,2,4.26,2a6.59,6.59,0,0,0,2.33-.34c1-.37,1.8-.85,1.88-2s-.7-1.87-1.7-2.31A26.21,26.21,0,0,0,123.92,39a24.67,24.67,0,0,1-3.35-1A5.21,5.21,0,0,1,117,32.86,5,5,0,0,1,120.33,28c4-1.62,8-1.79,11.72.87a6.13,6.13,0,0,1,2,3.13c.35,1,.18,1.55-1,1.37C132.61,33.3,132.18,33.35,131.44,33.35Z"/><path class="cls-3" d="M109,45.62c-2.89,3.31-6.11,3.49-9.4,2.38-2.7-.91-3.75-3.18-3.94-5.79-.35-4.64-.09-9.29-.16-13.93,0-.64.24-.85.83-.77h.14c3.85-.14,3.85-.14,3.85,3.67v9.3c0,2.81,1.21,4.41,3.59,4.39,3.17,0,4.91-1.79,5-4.4.08-3.85.07-7.7,0-11.55,0-1.22.36-1.46,1.5-1.44,3.34.07,3.34,0,3.34,3.36,0,5.35,0,10.7,0,16.06,0,.88-.18,1.32-1.14,1.16a6.41,6.41,0,0,0-1,0C109.16,48.06,109.16,48.06,109,45.62Z"/><path class="cls-3" d="M73,36.16c0,3.62,0,7.23,0,10.84,0,.88-.24,1.14-1.1,1.07-1.3-.09-3,.4-3.8-.25s-.25-2.46-.25-3.76c0-6.24,0-12.48,0-18.71,0-1.06-.25-1.35-1.31-1.31-2.2.09-4.41,0-6.62.05-.77,0-1-.19-1.06-1-.1-3.33-.13-3.33,3.25-3.33,6.2,0,12.4,0,18.6,0,1,0,1.25.24,1.24,1.23,0,3.11,0,3.11-3.14,3.11H75.34c-2.31,0-2.31,0-2.31,2.24Z"/><path class="cls-3" d="M216.53,37.86c0-2.2-.05-4,0-5.76,0-.86-.21-1.16-1.1-1.13-.72,0-1.82.39-2.1-.19a6.62,6.62,0,0,1-.16-2.76c0-.8.67-.49,1.06-.5,2.28-.07,2.28-.06,2.28-2.27,0-.94.06-1.88,0-2.81s.3-1.07,1.13-1.08c3.69,0,3.69-.06,3.69,3.56,0,2.58,0,2.65,2.64,2.56,1.15,0,1.48.34,1.34,1.4a6.65,6.65,0,0,0,0,1.41c0,.56-.2.77-.73.71a.94.94,0,0,0-.29,0c-3,.08-3,.08-3,3v8.16c0,1.88.35,2.22,2.19,2.26.58,0,1.56-.29,1.67.17a12.66,12.66,0,0,1,0,3.2c0,.24-.35.23-.59.27a13.19,13.19,0,0,1-4.73-.05,3.82,3.82,0,0,1-3.25-3.69C216.41,42,216.59,39.74,216.53,37.86Z"/><path class="cls-3" d="M144,24.51c0,3,0,3,2.93,3,1,0,1.38.25,1.24,1.25a4.83,4.83,0,0,0,0,1.26c.1.85-.3,1.1-1.06,1a.33.33,0,0,0-.14,0c-3,.05-3,.05-3,3,0,2.68,0,5.35,0,8,0,2,.39,2.37,2.37,2.41.57,0,1.51-.35,1.67.18a6.5,6.5,0,0,1,0,3.19c0,.11-.28.24-.44.25a14.26,14.26,0,0,1-5.29-.12c-2-.57-2.93-1.89-2.95-4.49,0-3.66-.05-7.32,0-11,0-1.16-.27-1.59-1.47-1.49-.65.06-1.68.41-1.93-.25a6.91,6.91,0,0,1-.11-2.77c0-.66.64-.41,1-.42,2.48-.1,2.48-.09,2.48-2.51v-.14c0-3.72,0-3.7,3.78-3.51.68,0,.91.22.87.9S144,23.76,144,24.51Z"/><path class="cls-4" d="M183.32,34c0-4.32,0-8.64,0-13,0-.94.2-1.29,1.22-1.29,3.49,0,3.49,0,3.49,3.38,0,7.89,0,15.77,0,23.66,0,1-.22,1.34-1.3,1.33-3.41-.06-3.41,0-3.41-3.42Z"/><path class="cls-3" d="M85.19,30.83c1.68-2.65,3.71-4.08,6.66-4,.81,0,1.25.28,1.11,1.16a5.42,5.42,0,0,0,0,.57c0,.89.27,2-.13,2.61s-1.55.07-2.36.14c-2.4.19-4.38,2.23-4.82,5.09a52.81,52.81,0,0,0-.17,6.89c0,1.31,0,2.63,0,3.94,0,.61-.19.87-.8.79a1.31,1.31,0,0,0-.28,0c-3.57.07-3.57.07-3.57-3.5,0-5.3,0-10.61,0-15.92,0-.93.26-1.25,1.18-1.14s2.34-.43,3,.25S85.14,29.59,85.19,30.83Z"/><path class="cls-3" d="M174.74,37.73c0-3,0-6.09,0-9.14,0-.84.19-1.1,1.08-1.11,3.54,0,3.54-.05,3.54,3.42,0,5.34,0,10.68,0,16,0,.91-.22,1.16-1.15,1.16-3.47,0-3.47,0-3.47-3.46Z"/><path class="cls-5" d="M38.5,35.93l-11.27,2.9-.13-.31,7.75-5.67c.53-.38,1.07-.75,1.58-1.15.35-.28.66-.34,1,0C37.58,33.17,38.54,34.42,38.5,35.93Z"/><path class="cls-4" d="M177,19.75c2.3,0,2.3,0,2.3,2.23s0,2.09-2.16,2.09c-2.44,0-2.44,0-2.44-2.09S174.74,19.75,177,19.75Z"/><path class="cls-6" d="M213.22,97.53c-2.65-1.92-5.31-3.82-7.93-5.79a1.16,1.16,0,0,0-1.67,0c-2.63,2-5.3,3.84-8.26,6,.67-2.16,1.24-4,1.83-5.81.41-1.29.81-2.59,1.32-3.85a1.14,1.14,0,0,0-.52-1.59c-2.34-1.64-4.64-3.33-7-5l-1.31-1c3.28,0,6.21-.11,9.13,0,1.63.08,2.39-.4,2.81-2,.68-2.57,1.62-5.08,2.45-7.61.08-.26.07-.58.49-.69,1,3.09,2.1,6.16,3.05,9.27.25.8.55,1,1.34,1,3.28,0,6.56,0,10.28,0l-13.7,9.91.12.23L210,89.51c.46-.12.85-.23,1.06.44.78,2.49,1.61,5,2.43,7.43Z"/><path class="cls-6" d="M128.93,80.78q-6.63,4.78-13.25,9.58l.07.21c1.44-.35,2.87-.71,4.31-1,.38-.09.84-.29,1,.31.81,2.52,1.62,5,2.57,8-2.91-2.11-5.49-3.92-8-5.84a1.55,1.55,0,0,0-2.27,0c-2.47,1.89-5,3.67-7.79,5.65A25.82,25.82,0,0,1,106.87,93c.52-1.65,1-3.29,1.66-4.91a1.19,1.19,0,0,0-.52-1.64c-2.53-1.77-5-3.61-7.51-5.42-.14-.11-.35-.17-.27-.57,3.12,0,6.29,0,9.46,0a1.5,1.5,0,0,0,1.76-1.27c.91-3,1.94-6,3.06-9.46,1.1,3.37,2.13,6.33,3,9.34a1.66,1.66,0,0,0,2,1.39c3.1-.08,6.2,0,9.3,0Z"/><path class="cls-6" d="M145.13,80.5c3.18,0,6.35,0,9.52,0a1.51,1.51,0,0,0,1.76-1.3c.93-3,2-6,3.06-9.38.56,1.61,1,3,1.48,4.31.6,1.82,1.2,3.64,1.75,5.47.21.71.59.9,1.31.89,3.24,0,6.47,0,9.89.27l-13.27,9.6.07.22c1.39-.35,2.79-.69,4.18-1,.59-.15,1.06-.23,1.3.55.75,2.45,1.56,4.88,2.47,7.7l-5-3.6c-1.06-.77-2.17-1.49-3.15-2.34-.79-.68-1.35-.48-2.07,0-2.21,1.66-4.46,3.26-6.7,4.88a1.83,1.83,0,0,1-1.23.56c.85-2.62,1.68-5.18,2.52-7.74s.83-2.55-1.43-4.15-4.32-3.11-6.48-4.66Z"/><path class="cls-6" d="M69.65,70.18c1,3.07,2.06,6,3,9a1.59,1.59,0,0,0,1.89,1.31c2.67-.07,5.35,0,8,0,.45,0,.89,0,1.7.08L70.6,90.43l.09.19c1.49-.37,3-.75,4.47-1.1.36-.09.79-.34,1,.31.77,2.53,1.59,5,2.52,8C76.19,96,74,94.46,71.9,92.89c-2.33-1.71-2.33-1.73-4.66-.06l-6.87,4.94c1.09-3.36,2-6.34,3.05-9.29a1.58,1.58,0,0,0-.68-2.2C60.42,84.7,58.18,83,55.9,81.36c-.25-.18-.6-.28-.69-.86,2.21,0,4.38,0,6.56,0,1.4,0,3.13.55,4.11-.24s1-2.42,1.43-3.7c.68-2,1.34-4.09,2-6.13C69.35,70.35,69.47,70.31,69.65,70.18Z"/><path class="cls-6" d="M15.43,97.6c.81-2.47,1.54-4.67,2.24-6.88.38-1.2,1.22-2.56.92-3.57s-1.78-1.51-2.76-2.23c-1.9-1.4-3.81-2.78-6.06-4.42,3.59,0,6.77,0,9.94,0,1,0,1.44-.18,1.75-1.24.88-3,2-6,3.1-9.43.69,2.1,1.26,3.85,1.85,5.6s.7,3.72,1.81,4.76,3.14.25,4.76.28a59.25,59.25,0,0,1,6,.28L25.75,90.34a12.84,12.84,0,0,0,4.16-.78c.82-.2,1.17,0,1.41.79.7,2.35,1.49,4.68,2,7.2-2.49-1.8-5-3.53-7.42-5.44a1.83,1.83,0,0,0-2.72,0C21,93.8,18.74,95.38,16.5,97,16.25,97.17,16,97.3,15.43,97.6Z"/><path class="cls-3" d="M171,34.1c-.76-3.42-2.77-6-6.29-6.84-3.37-.85-6.61-.59-9.09,2.36-.39-2.11-.39-2.11-2.63-2.11h-.28c-1.23-.2-1.66.2-1.65,1.55.08,7.65,0,15.3,0,23,0,3.61,0,3.58,3.62,3.51.9,0,1.1-.31,1.09-1.14,0-2.77,0-5.54,0-8.64.36.32.49.43.61.55a8.74,8.74,0,0,0,13.29-1.64C171.74,41.35,171.85,37.73,171,34.1ZM166,41.81a5,5,0,0,1-4.95,3,5.11,5.11,0,0,1-4.83-3.66,9.69,9.69,0,0,1,.22-7.49,4.74,4.74,0,0,1,4.36-3,4.89,4.89,0,0,1,4.81,2.53,7.62,7.62,0,0,1,1.16,4.57A8.05,8.05,0,0,1,166,41.81Z"/><path class="cls-3" d="M206.45,27.92c-4-1.75-8-1.58-11.54,1.17-2.95,2.29-3.71,5.57-3.61,9.15.1,3.86,1.42,7.12,4.93,9a11,11,0,0,0,11-.09c3.63-2,4.69-5.49,4.84-9.41C211.92,33.5,210.71,29.77,206.45,27.92Zm-.72,14.93a5.16,5.16,0,0,1-8.28-.15c-2.47-3.31-1.86-9,1.19-11.15a4.52,4.52,0,0,1,3-.9,5,5,0,0,1,4.55,2.46A8.89,8.89,0,0,1,205.73,42.85Z"/></g></g></svg>